<?xml version="1.0" encoding="UTF-8" standalone="no"?>
<!DOCTYPE svg PUBLIC "-//W3C//DTD SVG 1.1//EN" "http://www.w3.org/Graphics/SVG/1.1/DTD/svg11.dtd">
<svg width="100%" height="100%" viewBox="0 0 3906 3906" version="1.1" xmlns="http://www.w3.org/2000/svg" xmlns:xlink="http://www.w3.org/1999/xlink" xml:space="preserve" xmlns:serif="http://www.serif.com/" style="fill-rule:evenodd;clip-rule:evenodd;stroke-linejoin:round;stroke-miterlimit:2;">
    <g transform="matrix(1,0,0,1,-8741.31,-4429.25)">
        <g id="Favicon" transform="matrix(4.16667,0,0,4.16667,8741.31,4429.25)">
            <rect x="0" y="0" width="937.412" height="937.412" style="fill:none;"/>
            <g transform="matrix(5.26535,0,0,5.26535,-967.611,-3724.33)">
                <g id="Capa-1" serif:id="Capa 1">
                    <g>
                        <g transform="matrix(463.987,0,0,-463.987,56.8976,796.344)">
                            <rect x="0.276" y="-0.14" width="0.044" height="0.28" style="fill:url(#_Linear1);"/>
                        </g>
                        <g transform="matrix(0,463.987,463.987,0,292.358,657.993)">
                            <path d="M0.171,-0.074C0.184,-0.097 0.202,-0.114 0.224,-0.128C0.247,-0.141 0.272,-0.147 0.298,-0.147C0.325,-0.147 0.349,-0.141 0.372,-0.128C0.394,-0.114 0.412,-0.097 0.426,-0.074C0.439,-0.051 0.445,-0.027 0.445,-0C0.445,0.027 0.439,0.051 0.426,0.074C0.412,0.096 0.394,0.114 0.372,0.127C0.349,0.141 0.325,0.147 0.298,0.147C0.278,0.147 0.259,0.143 0.241,0.136C0.223,0.128 0.207,0.117 0.194,0.104C0.181,0.091 0.17,0.075 0.163,0.057C0.155,0.039 0.151,0.02 0.151,-0C0.151,-0.027 0.158,-0.051 0.171,-0.074ZM0.37,-0.072C0.35,-0.091 0.326,-0.101 0.298,-0.101C0.27,-0.101 0.246,-0.091 0.227,-0.072C0.207,-0.052 0.197,-0.028 0.197,-0C0.197,0.028 0.207,0.052 0.227,0.072C0.246,0.091 0.27,0.101 0.298,0.101C0.326,0.101 0.35,0.091 0.37,0.072C0.389,0.052 0.399,0.028 0.399,-0C0.399,-0.028 0.389,-0.052 0.37,-0.072Z" style="fill:url(#_Linear2);fill-rule:nonzero;"/>
                        </g>
                    </g>
                </g>
            </g>
        </g>
    </g>
    <defs>
        <linearGradient id="_Linear1" x1="0" y1="0" x2="1" y2="0" gradientUnits="userSpaceOnUse" gradientTransform="matrix(0,-1,-1,-0,0.298178,0.298178)"><stop offset="0" style="stop-color:rgb(209,16,227);stop-opacity:1"/><stop offset="0.99" style="stop-color:rgb(33,6,101);stop-opacity:1"/><stop offset="1" style="stop-color:rgb(33,6,101);stop-opacity:1"/></linearGradient>
        <linearGradient id="_Linear2" x1="0" y1="0" x2="1" y2="0" gradientUnits="userSpaceOnUse" gradientTransform="matrix(1,0,0,-1,0,-3.18026e-06)"><stop offset="0" style="stop-color:rgb(209,16,227);stop-opacity:1"/><stop offset="0.99" style="stop-color:rgb(33,6,101);stop-opacity:1"/><stop offset="1" style="stop-color:rgb(33,6,101);stop-opacity:1"/></linearGradient>
    </defs>
</svg>
